<?xml version="1.0" encoding="utf-8"?>
<!-- Generator: Adobe Illustrator 17.0.0, SVG Export Plug-In . SVG Version: 6.00 Build 0)  -->
<!DOCTYPE svg PUBLIC "-//W3C//DTD SVG 1.1//EN" "http://www.w3.org/Graphics/SVG/1.1/DTD/svg11.dtd">
<svg version="1.1" id="Layer_1" xmlns="http://www.w3.org/2000/svg" xmlns:xlink="http://www.w3.org/1999/xlink" x="0px" y="0px"
	 width="82px" height="24px" viewBox="0 0 82 24" enable-background="new 0 0 82 24" xml:space="preserve">
<g>
	<g>
		<path fill="#FFFFFF" d="M23.153,11.703c0,6.487-5.076,11.76-11.562,11.76C5.132,23.463,0,18.19,0,11.703C0,5.274,5.132,0,11.591,0
			C18.076,0,23.153,5.274,23.153,11.703z M0.817,11.703C2.453,15.144,6.288,18.5,11.591,18.5c5.273,0,9.136-3.356,10.773-6.797
			c-1.24-2.563-4.775-6.74-10.773-6.74C6.288,4.963,2.453,8.319,0.817,11.703z M17.795,11.703c0,3.469-2.764,6.233-6.204,6.233
			c-3.441,0-6.233-2.764-6.233-6.233c0-3.412,2.792-6.204,6.233-6.204C15.031,5.499,17.795,8.291,17.795,11.703z"/>
	</g>
	<g>
		<path fill="#FFFFFF" d="M25.616,11.716c0-6.313,4.782-10.573,11.063-10.573c4.935,0,7.6,2.788,8.919,5.455l-4.536,2.176
			c-0.674-1.624-2.421-2.972-4.383-2.972c-3.339,0-5.701,2.543-5.701,5.914c0,3.34,2.361,5.915,5.701,5.915
			c1.962,0,3.709-1.349,4.383-2.974l4.536,2.146c-1.319,2.605-3.984,5.486-8.919,5.486C30.398,22.289,25.616,17.999,25.616,11.716z"
			/>
		<path fill="#FFFFFF" d="M46.029,21.922V1.481h11.583c4.076,0,5.977,2.635,5.977,5.21c0,2.543-1.562,4.26-3.494,4.688
			c2.177,0.338,3.893,2.422,3.893,4.996c0,2.973-1.992,5.547-6.007,5.547H46.029z M58.226,7.671c0-0.98-0.735-1.594-1.809-1.594
			h-5.116v3.188h5.116C57.491,9.265,58.226,8.682,58.226,7.671z M58.624,15.578c0-1.012-0.735-1.717-2.022-1.717h-5.301v3.464h5.301
			C57.857,17.325,58.624,16.681,58.624,15.578z"/>
		<path fill="#FFFFFF" d="M64.172,19.041l2.789-4.106c1.47,1.471,3.738,2.697,6.559,2.697c1.777,0,2.881-0.613,2.881-1.625
			c0-2.696-11.555-0.459-11.555-8.336c0-3.433,2.88-6.497,8.123-6.497c3.279,0,6.128,0.98,8.303,2.85l-2.88,3.954
			c-1.716-1.441-3.953-2.146-5.976-2.146c-1.532,0-2.207,0.521-2.207,1.41c0,2.512,11.555,0.612,11.555,8.212
			c0,4.107-3.034,6.835-8.521,6.835C69.106,22.289,66.225,20.971,64.172,19.041z"/>
	</g>
</g>
</svg>
